<svg width="104" height="32" viewBox="0 0 104 32" fill="none" xmlns="http://www.w3.org/2000/svg">
<g clip-path="url(#clip0_0_10)">
<g clip-path="url(#clip1_0_10)">
<path d="M34.6953 25.1903V5.12447H43.7279C45.87 5.12447 47.5573 5.71049 48.7899 6.88249C50.0224 8.0343 50.6389 9.60037 50.6389 11.5807C50.6389 13.561 50.0224 15.1372 48.7899 16.3092C47.5573 17.4611 45.87 18.037 43.7279 18.037H36.9684V25.1903H34.6953ZM36.9684 15.9152H43.5764C45.1525 15.9152 46.3449 15.5312 47.1529 14.7634C47.9614 13.9955 48.3654 12.9346 48.3654 11.5807C48.3654 10.247 47.9614 9.19623 47.1529 8.42837C46.3449 7.66049 45.1525 7.27656 43.5764 7.27656H36.9684V15.9152ZM51.8793 25.1903V3.97266H54.1527V25.1903H51.8793ZM63.1271 25.4328C61.6519 25.4328 60.3587 25.0893 59.2474 24.4023C58.1561 23.695 57.3075 22.7452 56.7012 21.553C56.095 20.3608 55.7921 19.0473 55.7921 17.6126C55.7921 16.1577 56.095 14.8442 56.7012 13.6722C57.3075 12.4799 58.1561 11.5403 59.2474 10.8532C60.3587 10.146 61.6519 9.79235 63.1271 9.79235C64.3801 9.79235 65.451 10.0348 66.3401 10.5198C67.2496 11.0048 67.9869 11.6615 68.553 12.49V10.0348H70.8261V25.1903H68.553V22.7655C67.9869 23.5738 67.2496 24.2204 66.3401 24.7054C65.451 25.1903 64.3801 25.4328 63.1271 25.4328ZM63.4304 23.3717C64.5619 23.3717 65.5116 23.109 66.2795 22.5836C67.0675 22.0582 67.6639 21.361 68.0679 20.4921C68.472 19.603 68.6742 18.6432 68.6742 17.6126C68.6742 16.5618 68.472 15.602 68.0679 14.7331C67.6639 13.8641 67.0675 13.167 66.2795 12.6416C65.5116 12.1162 64.5619 11.8535 63.4304 11.8535C62.3187 11.8535 61.3592 12.1162 60.5507 12.6416C59.7423 13.167 59.1262 13.8641 58.7017 14.7331C58.2773 15.602 58.0652 16.5618 58.0652 17.6126C58.0652 18.6432 58.2773 19.603 58.7017 20.4921C59.1262 21.361 59.7423 22.0582 60.5507 22.5836C61.3592 23.109 62.3187 23.3717 63.4304 23.3717ZM73.3944 25.1903V10.0348H75.6675V12.3991C76.2131 11.6717 76.88 11.0553 77.6683 10.5501C78.4563 10.045 79.4666 9.79235 80.6991 9.79235C81.7499 9.79235 82.7303 10.045 83.6394 10.5501C84.569 11.0351 85.3165 11.7727 85.8823 12.7628C86.4684 13.7328 86.7615 14.9351 86.7615 16.3698V25.1903H84.488V16.4305C84.488 15.0564 84.0942 13.9551 83.3059 13.1265C82.5178 12.2779 81.4974 11.8535 80.2447 11.8535C79.3958 11.8535 78.6279 12.0455 77.941 12.4294C77.254 12.8134 76.6982 13.3589 76.2737 14.0662C75.8697 14.7532 75.6675 15.5515 75.6675 16.4608V25.1903H73.3944ZM95.9275 25.4328C94.392 25.4328 93.0482 25.0893 91.8963 24.4023C90.7444 23.695 89.8454 22.7452 89.1987 21.553C88.5724 20.3608 88.2589 19.0473 88.2589 17.6126C88.2589 16.1577 88.5622 14.8442 89.1684 13.6722C89.7746 12.4799 90.6433 11.5403 91.7751 10.8532C92.9066 10.146 94.2402 9.79235 95.7761 9.79235C97.332 9.79235 98.6656 10.146 99.777 10.8532C100.909 11.5403 101.778 12.4799 102.384 13.6722C102.99 14.8442 103.293 16.1577 103.293 17.6126V18.5219H90.5929C90.7141 19.411 90.997 20.2295 91.4415 20.9771C91.9065 21.7046 92.5226 22.2906 93.2905 22.7351C94.0585 23.1595 94.9476 23.3717 95.9578 23.3717C97.029 23.3717 97.9284 23.1393 98.6558 22.6745C99.3832 22.1896 99.9489 21.5732 100.353 20.8255H102.839C102.313 22.1794 101.475 23.2909 100.323 24.1598C99.1912 25.0085 97.7262 25.4328 95.9275 25.4328ZM90.6232 16.4002H100.929C100.727 15.1069 100.181 14.0258 99.2923 13.1569C98.4032 12.288 97.2309 11.8535 95.7761 11.8535C94.3212 11.8535 93.1493 12.288 92.2602 13.1569C91.3912 14.0258 90.8455 15.1069 90.6232 16.4002Z" fill="black"/>
<path d="M22.3194 2.20703H7.43945V9.92255H14.8794V17.3625H22.3194V2.20703Z" fill="#3F76FF"/>
<path d="M7.43996 9.92188H0V17.3618H7.43996V9.92188Z" fill="#3F76FF"/>
<path d="M14.8794 17.3613H7.43945V24.8013H14.8794V17.3613Z" fill="#3F76FF"/>
</g>
</g>
<defs>
<clipPath id="clip0_0_10">
<rect width="104" height="32" fill="white"/>
</clipPath>
<clipPath id="clip1_0_10">
<rect width="104.5" height="32" fill="white"/>
</clipPath>
</defs>
</svg>
