<svg width="91" height="28" viewBox="0 0 91 28" fill="none" xmlns="http://www.w3.org/2000/svg">
<g clip-path="url(#clip0_0_509)">
<path d="M30.1289 22.0158V4.59103H37.9727C39.8327 4.59103 41.298 5.09992 42.3684 6.11768C43.4387 7.11789 43.974 8.47782 43.974 10.1975C43.974 11.9172 43.4387 13.2859 42.3684 14.3036C41.298 15.3039 39.8327 15.804 37.9727 15.804H32.103V22.0158H30.1289ZM32.103 13.9615H37.8411C39.2098 13.9615 40.2452 13.6281 40.947 12.9612C41.6488 12.2944 41.9999 11.3732 41.9999 10.1975C41.9999 9.03936 41.6488 8.12689 40.947 7.46007C40.2452 6.79325 39.2098 6.45986 37.8411 6.45986H32.103V13.9615ZM45.0512 22.0158V3.59082H47.0253V22.0158H45.0512ZM54.8186 22.2264C53.5378 22.2264 52.4145 21.9281 51.4495 21.3315C50.5019 20.7173 49.7649 19.8926 49.2385 18.8572C48.7121 17.8219 48.4489 16.6814 48.4489 15.4355C48.4489 14.172 48.7121 13.0314 49.2385 12.0137C49.7649 10.9784 50.5019 10.1624 51.4495 9.56578C52.4145 8.95161 53.5378 8.64453 54.8186 8.64453C55.9067 8.64453 56.8365 8.85511 57.6087 9.27625C58.3984 9.69739 59.0389 10.2677 59.5302 10.9871V8.85511H61.5043V22.0158H59.5302V19.9101C59.0389 20.612 58.3984 21.1735 57.6087 21.5947C56.8365 22.0158 55.9067 22.2264 54.8186 22.2264ZM55.0819 20.4365C56.0646 20.4365 56.8892 20.2084 57.5561 19.7522C58.2404 19.2959 58.758 18.6905 59.109 17.936C59.4601 17.1639 59.6355 16.3304 59.6355 15.4355C59.6355 14.523 59.4601 13.6895 59.109 12.9349C58.758 12.1804 58.2404 11.575 57.5561 11.1187C56.8892 10.6625 56.0646 10.4344 55.0819 10.4344C54.1168 10.4344 53.2831 10.6625 52.5813 11.1187C51.8795 11.575 51.3442 12.1804 50.9757 12.9349C50.6072 13.6895 50.423 14.523 50.423 15.4355C50.423 16.3304 50.6072 17.1639 50.9757 17.936C51.3442 18.6905 51.8795 19.2959 52.5813 19.7522C53.2831 20.2084 54.1168 20.4365 55.0819 20.4365ZM63.7344 22.0158V8.85511H65.7085V10.9082C66.1823 10.2765 66.7614 9.74125 67.4458 9.30257C68.1301 8.86389 69.0073 8.64453 70.0779 8.64453C70.9903 8.64453 71.8414 8.86389 72.6311 9.30257C73.4382 9.72371 74.0874 10.3642 74.5789 11.224C75.0876 12.0663 75.3422 13.1104 75.3422 14.3563V22.0158H73.3681V14.4089C73.3681 13.2157 73.0259 12.2594 72.3415 11.5399C71.6572 10.8029 70.7709 10.4344 69.6831 10.4344C68.9461 10.4344 68.2792 10.6011 67.6826 10.9345C67.0859 11.2679 66.6035 11.7417 66.235 12.3559C65.8839 12.9525 65.7085 13.6456 65.7085 14.4352V22.0158H63.7344ZM83.3018 22.2264C81.9682 22.2264 80.8012 21.9281 79.801 21.3315C78.8008 20.7173 78.02 19.8926 77.4584 18.8572C76.9145 17.8219 76.6425 16.6814 76.6425 15.4355C76.6425 14.172 76.9057 13.0314 77.4321 12.0137C77.9585 10.9784 78.7132 10.1624 79.6957 9.56578C80.6785 8.95161 81.8366 8.64453 83.1702 8.64453C84.5214 8.64453 85.6796 8.95161 86.6446 9.56578C87.6273 10.1624 88.3818 10.9784 88.9082 12.0137C89.4347 13.0314 89.6979 14.172 89.6979 15.4355V16.2251H78.6692C78.7745 16.9972 79.0202 17.7079 79.4062 18.3571C79.8099 18.9889 80.3452 19.4977 81.0118 19.8838C81.6787 20.2523 82.4509 20.4365 83.3281 20.4365C84.2582 20.4365 85.039 20.2347 85.6707 19.8311C86.3024 19.41 86.7939 18.8748 87.1447 18.2255H89.3031C88.847 19.4012 88.1186 20.3664 87.1184 21.1209C86.1359 21.8579 84.8636 22.2264 83.3018 22.2264ZM78.6955 14.3826H87.6448C87.4694 13.2596 86.9956 12.3208 86.2235 11.5662C85.4515 10.8117 84.4336 10.4344 83.1702 10.4344C81.9067 10.4344 80.8891 10.8117 80.1169 11.5662C79.3624 12.3208 78.8886 13.2596 78.6955 14.3826Z" fill="white"/>
<path d="M19.3821 1.91602H6.46072V8.61602H12.9214V15.0767H19.3821V1.91602Z" fill="#F8F9FA"/>
<path d="M6.46071 8.61621H0V15.0769H6.46071V8.61621Z" fill="#F8F9FA"/>
<path d="M12.9214 15.0771H6.46072V21.5379H12.9214V15.0771Z" fill="#F8F9FA"/>
</g>
<defs>
<clipPath id="clip0_0_509">
<rect width="90.45" height="28" fill="white"/>
</clipPath>
</defs>
</svg>
